<svg width="778" height="206" viewBox="0 0 778 206" fill="none" xmlns="http://www.w3.org/2000/svg">
<g clip-path="url(#clip0_1_14)" filter="url(#filter0_d_1_14)">
<rect x="54" y="25" width="140" height="170" rx="14" fill="#0E506D"/>
<path d="M92.2 38.8L135.2 144.8L118.4 141.4L157.4 38.8H191.8L124.6 192.8L57.4 38.8H92.2Z" fill="white"/>
<path d="M250.666 188.4C239.999 188.4 230.932 186.4 223.466 182.4C216.132 178.4 210.532 172.867 206.666 165.8C202.799 158.733 200.866 150.6 200.866 141.4C200.866 132.6 203.132 124.667 207.666 117.6C212.199 110.533 218.266 104.933 225.866 100.8C233.466 96.5333 241.932 94.4 251.266 94.4C263.799 94.4 274.066 98.0667 282.066 105.4C290.199 112.6 295.466 123.067 297.866 136.8L229.866 158.4L223.666 143.2L272.866 126.6L267.066 129.2C265.999 125.733 264.066 122.733 261.266 120.2C258.599 117.533 254.532 116.2 249.066 116.2C244.932 116.2 241.266 117.2 238.066 119.2C234.999 121.067 232.599 123.8 230.866 127.4C229.266 130.867 228.466 135 228.466 139.8C228.466 145.267 229.466 149.867 231.466 153.6C233.466 157.2 236.199 159.933 239.666 161.8C243.132 163.667 246.999 164.6 251.266 164.6C254.332 164.6 257.266 164.067 260.066 163C262.999 161.933 265.866 160.533 268.666 158.8L281.066 179.6C276.399 182.267 271.332 184.4 265.866 186C260.532 187.6 255.466 188.4 250.666 188.4ZM363.413 98.6L366.013 122.6L365.413 119C367.946 113.8 371.413 109.4 375.813 105.8C380.213 102.067 384.546 99.2 388.813 97.2C393.213 95.2 396.546 94.2 398.813 94.2L397.413 122.2C390.879 121.4 385.279 122.467 380.613 125.4C375.946 128.333 372.346 132.2 369.813 137C367.279 141.8 366.013 146.733 366.013 151.8V186H338.213V98.6H363.413ZM510.538 178.2C506.671 181.267 501.804 183.733 495.938 185.6C490.204 187.467 484.538 188.4 478.938 188.4C468.938 188.4 460.204 186.6 452.738 183C445.404 179.267 439.671 174 435.538 167.2C431.538 160.267 429.538 151.933 429.538 142.2C429.538 132.467 431.738 124.2 436.138 117.4C440.538 110.467 446.271 105.2 453.338 101.6C460.538 98 468.071 96.2 475.938 96.2C483.804 96.2 490.604 97.2667 496.338 99.4C502.204 101.533 507.204 104.333 511.338 107.8L497.738 125.8C495.871 124.333 493.271 122.867 489.938 121.4C486.738 119.8 482.938 119 478.538 119C474.671 119 471.138 120 467.938 122C464.738 124 462.204 126.733 460.338 130.2C458.471 133.667 457.538 137.667 457.538 142.2C457.538 146.467 458.538 150.4 460.538 154C462.538 157.6 465.271 160.467 468.738 162.6C472.338 164.6 476.538 165.6 481.338 165.6C484.404 165.6 487.204 165.2 489.738 164.4C492.404 163.467 494.671 162.2 496.538 160.6L510.538 178.2ZM595.041 188.4C584.374 188.4 575.307 186.4 567.841 182.4C560.507 178.4 554.907 172.867 551.041 165.8C547.174 158.733 545.241 150.6 545.241 141.4C545.241 132.6 547.507 124.667 552.041 117.6C556.574 110.533 562.641 104.933 570.241 100.8C577.841 96.5333 586.307 94.4 595.641 94.4C608.174 94.4 618.441 98.0667 626.441 105.4C634.574 112.6 639.841 123.067 642.241 136.8L574.241 158.4L568.041 143.2L617.241 126.6L611.441 129.2C610.374 125.733 608.441 122.733 605.641 120.2C602.974 117.533 598.907 116.2 593.441 116.2C589.307 116.2 585.641 117.2 582.441 119.2C579.374 121.067 576.974 123.8 575.241 127.4C573.641 130.867 572.841 135 572.841 139.8C572.841 145.267 573.841 149.867 575.841 153.6C577.841 157.2 580.574 159.933 584.041 161.8C587.507 163.667 591.374 164.6 595.641 164.6C598.707 164.6 601.641 164.067 604.441 163C607.374 161.933 610.241 160.533 613.041 158.8L625.441 179.6C620.774 182.267 615.707 184.4 610.241 186C604.907 187.6 599.841 188.4 595.041 188.4ZM682.588 28.2H710.588V186H682.588V28.2Z" fill="#0E506D"/>
</g>
<defs>
<filter id="filter0_d_1_14" x="-4" y="0" width="786" height="214" filterUnits="userSpaceOnUse" color-interpolation-filters="sRGB">
<feFlood flood-opacity="0" result="BackgroundImageFix"/>
<feColorMatrix in="SourceAlpha" type="matrix" values="0 0 0 0 0 0 0 0 0 0 0 0 0 0 0 0 0 0 127 0" result="hardAlpha"/>
<feOffset dy="4"/>
<feGaussianBlur stdDeviation="2"/>
<feComposite in2="hardAlpha" operator="out"/>
<feColorMatrix type="matrix" values="0 0 0 0 0 0 0 0 0 0 0 0 0 0 0 0 0 0 0.25 0"/>
<feBlend mode="normal" in2="BackgroundImageFix" result="effect1_dropShadow_1_14"/>
<feBlend mode="normal" in="SourceGraphic" in2="effect1_dropShadow_1_14" result="shape"/>
</filter>
<clipPath id="clip0_1_14">
<rect width="778" height="206" fill="white"/>
</clipPath>
</defs>
</svg>
